<?xml version="1.0" encoding="utf-8"?>
<!-- Generator: Adobe Illustrator 16.0.0, SVG Export Plug-In . SVG Version: 6.00 Build 0)  -->
<!DOCTYPE svg PUBLIC "-//W3C//DTD SVG 1.1//EN" "http://www.w3.org/Graphics/SVG/1.1/DTD/svg11.dtd">
<svg version="1.1" id="Layer_1" xmlns="http://www.w3.org/2000/svg" xmlns:xlink="http://www.w3.org/1999/xlink" x="0px" y="0px"
	 width="130px" height="130px" viewBox="0 0 130 130" enable-background="new 0 0 130 130" xml:space="preserve">
<g>
	<circle fill="#FF5134" cx="83.583" cy="39.586" r="15.417"/>
	<g>
		<g>
			<path d="M109.771,39c0,0-4.699,33-11.918,41H46.635C41.995,74,35.75,39,35.75,39H110 M109.771,34H35.75
				c-1.354,0-2.638,0.557-3.509,1.593c-0.871,1.036-1.239,2.383-1.006,3.717c0.016,0.09,1.604,9.142,3.744,18.758
				c4.012,18.038,6.465,22.475,8.154,24.477C44.003,83.576,45.285,84,46.635,84h51.218c1.229,0,2.405-0.326,3.267-1.201
				c7.885-8.01,12.372-37.838,13.191-43.753c0.182-1.313-0.214-2.557-1.084-3.556S111.097,34,109.771,34L109.771,34z"/>
		</g>
		
			<polyline fill="none" stroke="#000000" stroke-width="5" stroke-linecap="round" stroke-linejoin="round" stroke-miterlimit="10" points="
			18,23.5 31,23.5 33.563,38.125 		"/>
	</g>
	
		<circle fill="none" stroke="#000000" stroke-width="4.5833" stroke-linecap="round" stroke-linejoin="round" stroke-miterlimit="10" cx="58.083" cy="99.42" r="7.917"/>
	
		<circle fill="none" stroke="#000000" stroke-width="4.5833" stroke-linecap="round" stroke-linejoin="round" stroke-miterlimit="10" cx="88.083" cy="99.42" r="7.917"/>
	
		<rect x="52.924" y="55.697" transform="matrix(0.7071 -0.7071 0.7071 0.7071 -26.4422 60.6931)" fill="#FF5134" width="14.226" height="13.132"/>
</g>
</svg>
