<?xml version="1.0" encoding="utf-8"?>
<!-- Generator: Adobe Illustrator 16.0.0, SVG Export Plug-In . SVG Version: 6.00 Build 0)  -->
<!DOCTYPE svg PUBLIC "-//W3C//DTD SVG 1.1//EN" "http://www.w3.org/Graphics/SVG/1.1/DTD/svg11.dtd">
<svg version="1.1" id="Layer_1" xmlns="http://www.w3.org/2000/svg" xmlns:xlink="http://www.w3.org/1999/xlink" x="0px" y="0px"
	 width="300px" height="300px" viewBox="0 0 300 300" enable-background="new 0 0 300 300" xml:space="preserve">
<circle fill="#FFFFFF" stroke="#000000" stroke-miterlimit="10" cx="149.568" cy="150.13" r="143.799"/>
<g>
	<g id="XMLID_21_">
		<g id="XMLID_22_">
			<g id="XMLID_23_">
				<g id="XMLID_24_">
					<path id="XMLID_25_" d="M149.834,4.241C69.392,4.241,3.946,69.687,3.946,150.13c0,80.442,65.446,145.889,145.888,145.889
						c80.443,0,145.889-65.447,145.889-145.889C295.723,69.687,230.277,4.241,149.834,4.241z M149.834,290.487
						c-77.391,0-140.355-62.965-140.355-140.357c0-77.393,62.964-140.356,140.355-140.356c77.394,0,140.354,62.963,140.354,140.356
						C290.188,227.522,227.228,290.487,149.834,290.487z"/>
				</g>
			</g>
		</g>
	</g>
	<g>
		<g id="XMLID_14_">
			<g id="XMLID_15_">
				<g id="XMLID_16_">
					<g id="XMLID_17_">
						<path id="XMLID_18_" d="M149.834,17.151c-73.324,0-132.978,59.652-132.978,132.979c0,73.325,59.654,132.979,132.978,132.979
							c73.324,0,132.978-59.653,132.978-132.979C282.813,76.804,223.158,17.151,149.834,17.151z M149.834,279.788
							c-71.494,0-129.658-58.164-129.658-129.658c0-71.495,58.164-129.659,129.658-129.659c71.494,0,129.658,58.164,129.658,129.659
							C279.492,221.624,221.328,279.788,149.834,279.788z"/>
					</g>
				</g>
			</g>
		</g>
		<g id="XMLID_9_">
			<g id="XMLID_10_">
				<g id="XMLID_11_">
					<g id="XMLID_12_">
						<rect id="XMLID_13_" x="48.949" y="99.586" width="204.67" height="2.213"/>
					</g>
				</g>
			</g>
		</g>
		<g id="XMLID_4_">
			<g id="XMLID_5_">
				<g id="XMLID_6_">
					<g id="XMLID_7_">
						<rect id="XMLID_8_" x="48.949" y="199.46" width="204.67" height="2.214"/>
					</g>
				</g>
			</g>
		</g>
		<g>
			<path d="M60.779,226.911c-2.071-0.121-3.93-1.259-5.522-3.304c-1.592-2.046-2.224-4.107-1.833-6.146
				c0.447-2.355,2.149-4.349,4.763-6.383c2.575-2.005,4.944-3.18,7.337-3.036c2.071,0.121,3.916,1.24,5.507,3.285
				c1.592,2.046,2.239,4.127,1.848,6.164c-0.462,2.337-2.183,4.345-4.758,6.35C65.508,225.876,63.157,227.036,60.779,226.911z
				 M68.238,216.179c0.258-0.84,0.092-1.562-0.483-2.3c-0.575-0.739-1.219-1.059-2.097-1.014c-1.05,0.057-2.229,0.73-4.274,2.323
				c-2.083,1.621-3.006,2.583-3.338,3.602c-0.259,0.84-0.107,1.543,0.468,2.281c0.575,0.739,1.234,1.077,2.111,1.033
				c1.055-0.091,2.214-0.75,4.297-2.372C66.968,218.141,67.91,217.164,68.238,216.179z"/>
			<path d="M73.294,232.534l7.614-9.397l4.027,3.263l-7.81,9.64c-1.375,1.697-1.255,2.998-0.006,4.011
				c1.25,1.012,2.547,0.858,3.922-0.838l7.81-9.641l4.027,3.264l-7.613,9.397c-2.946,3.636-6.661,4.332-10.744,1.024
				C70.438,239.948,70.349,236.17,73.294,232.534z"/>
			<path d="M101.123,254.607c0.673-1.594,0.398-2.343-0.874-2.965l-1.811-0.886l-2.847,5.821l-4.679-2.288l8.488-17.356l7.524,3.68
				c3.773,1.845,4.702,4.918,3.142,8.108c-1.149,2.351-3.041,3.269-5.084,2.911c1.631,1.198,1.805,2.646,0.838,5.005l-0.998,2.424
				c-0.305,0.733-0.429,1.313-0.435,1.818l-4.657-2.277c-0.015-0.462,0.226-1.172,0.467-1.775L101.123,254.607z M102.149,247.976
				c1.315,0.644,2.3,0.377,3.007-1.067c0.728-1.487,0.322-2.407-0.993-3.051l-1.897-0.928l-2.014,4.118L102.149,247.976z"/>
			<path d="M140.625,265.01c0.07-1.729-0.45-2.335-1.86-2.471l-2.007-0.193l-0.622,6.451l-5.185-0.5l1.854-19.235l8.34,0.804
				c4.182,0.403,6.13,2.955,5.789,6.491c-0.251,2.604-1.7,4.129-3.739,4.512c1.949,0.55,2.62,1.844,2.543,4.394l-0.084,2.62
				c-0.028,0.793,0.06,1.381,0.231,1.855l-5.162-0.498c-0.176-0.427-0.2-1.177-0.186-1.826L140.625,265.01z M139.257,258.438
				c1.458,0.141,2.287-0.455,2.441-2.056c0.159-1.649-0.543-2.368-2.001-2.509l-2.103-0.202l-0.44,4.563L139.257,258.438z"/>
			<path d="M155.199,250.281l12.496-1.423l0.467,4.103l-7.32,0.833l0.363,3.196l6.344-0.723l0.471,4.126l-6.344,0.723l0.42,3.696
				l7.465-0.85l0.465,4.078l-12.641,1.439L155.199,250.281z"/>
			<path d="M177.457,248.627c0.789-1.92,2.447-3.3,4.9-4.141c4.676-1.603,8.234,0.045,9.818,4.221l-4.881,1.674
				c-0.684-1.771-1.867-2.558-3.592-1.966c-0.887,0.303-1.398,0.809-1.641,1.653c-0.287,1.012-0.041,2.322,0.807,4.798
				c0.863,2.52,1.465,3.684,2.32,4.329c0.711,0.518,1.426,0.603,2.311,0.3c1.727-0.592,2.193-1.97,1.631-3.756l4.881-1.674
				c1.313,4.271-0.496,7.731-5.174,9.335c-2.451,0.84-4.607,0.768-6.408-0.265c-2.082-1.189-3.414-3.448-4.488-6.581
				C176.885,253.467,176.543,250.844,177.457,248.627z"/>
			<path d="M210.813,252.871l-4.533,2.563l-9.506-16.815l4.533-2.563L210.813,252.871z"/>
			<path d="M220.395,238.35l4.133,4.993l-4.014,3.32l-12.32-14.887l6.252-5.173c3.328-2.755,6.621-2.428,9.225,0.717
				c2.617,3.162,2.291,6.422-1.037,9.177L220.395,238.35z M219.391,233.821c1.127-0.934,1.275-1.96,0.266-3.18
				c-1.041-1.258-2.061-1.286-3.189-0.353l-1.627,1.347l2.922,3.532L219.391,233.821z"/>
			<path d="M224.516,217.073l7.811-9.858l3.236,2.563l-4.576,5.776l2.521,1.997l3.965-5.004l3.254,2.579l-3.965,5.004l2.916,2.312
				l4.666-5.89l3.217,2.55l-7.9,9.972L224.516,217.073z"/>
		</g>
		<g>
			<path d="M44.362,85.354l5.237-7.844l2.575,1.72l-3.068,4.595l2.006,1.34l2.658-3.981l2.59,1.729l-2.659,3.981l2.32,1.55
				l3.128-4.686l2.56,1.709l-5.297,7.934L44.362,85.354z"/>
			<path d="M56.173,69.339l14.05,5.791l-2.518,3.011l-2.163-1.035l-2.599,3.107l1.4,1.946l-2.507,2.996L53.655,72.35L56.173,69.339z
				 M58.145,73.547l3.035,4.229l1.651-1.975L58.145,73.547z"/>
			<path d="M74.525,71.419c-2.545,2.443-5.206,2.452-6.977,0.608l-0.199-0.208l2.805-2.692l0.225,0.233
				c0.586,0.61,1.361,0.665,2.114-0.059c0.753-0.723,0.731-1.5,0.145-2.11s-1.286-0.638-2.473,0.128l-0.954,0.592
				c-2.128,1.369-4.271,1.58-6.104-0.328c-1.721-1.792-1.59-4.463,0.787-6.744c2.454-2.356,5.1-2.252,6.646-0.642l0.174,0.182
				l-2.805,2.693l-0.174-0.182c-0.511-0.533-1.173-0.521-1.797,0.077c-0.636,0.611-0.662,1.26-0.151,1.792
				c0.561,0.585,1.262,0.535,2.461-0.217l0.929-0.617c2.27-1.431,4.357-1.414,6.14,0.443C77.126,66.252,77.148,68.9,74.525,71.419z"
				/>
			<path d="M75.77,51.042l3.139-2.444l1.947,9.62l3.507,4.504l-3.097,2.411l-3.507-4.503l-8.851-4.244l3.14-2.445l5.291,2.955
				L75.77,51.042z"/>
			<path d="M97.324,47.817c-0.12-0.528-0.388-1.14-0.66-1.647l3.107-1.669c0.711,1.477,1.016,3.07,0.914,4.555l3.811,1.467
				l-3.757,2.018l-1.067-0.428c-0.436,1.092-1.351,2.013-2.523,2.643c-2.711,1.456-5.247,0.918-6.473-1.365
				c-0.8-1.49-0.638-3.089,0.358-4.543c-1.5-0.625-2.333-1.301-2.852-2.268c-1.047-1.95-0.187-3.924,2.112-5.158
				c2.283-1.227,4.419-0.862,5.466,1.088l0.272,0.508l-3.123,1.677l-0.272-0.507c-0.29-0.539-0.64-0.698-1.1-0.451
				s-0.528,0.651-0.248,1.175c0.255,0.476,0.634,0.763,1.571,1.138L97.324,47.817z M97.091,51.149l-3.322-1.28
				c-0.225,0.57-0.208,1.174,0.091,1.729c0.511,0.951,1.352,1.072,2.224,0.604C96.527,51.963,96.919,51.589,97.091,51.149z"/>
			<path d="M105.006,34.748l8.805-3.066l1.019,2.924l-5.117,1.782l0.865,2.481l4.521-1.575l1.018,2.924l-4.521,1.575l1.865,5.354
				l-3.688,1.284L105.006,34.748z"/>
			<path d="M118.157,39.811l-2.053-8.837l3.787-0.88l2.106,9.064c0.371,1.596,1.196,2.124,2.371,1.852
				c1.175-0.273,1.682-1.111,1.311-2.707l-2.106-9.064l3.787-0.88l2.054,8.836c0.794,3.419-0.505,5.938-4.345,6.831
				C121.229,44.917,118.952,43.229,118.157,39.811z"/>
			<path d="M134.792,33.972l0.887,7.868l-3.738,0.421l-1.622-14.396l3.738-0.421l4.465,7.483l-0.888-7.887l3.737-0.421l1.622,14.396
				l-3.738,0.421L134.792,33.972z"/>
			<path d="M158.143,35.443c0.172-0.513,0.262-1.176,0.293-1.751l3.521,0.188c-0.158,1.632-0.727,3.152-1.584,4.368l2.494,3.234
				l-4.26-0.229l-0.689-0.92c-0.939,0.707-2.199,1.018-3.529,0.947c-3.074-0.165-4.962-1.942-4.824-4.53
				c0.09-1.69,1.06-2.972,2.667-3.697c-0.957-1.313-1.318-2.324-1.259-3.42c0.119-2.211,1.878-3.451,4.486-3.312
				c2.588,0.139,4.225,1.56,4.105,3.771l-0.031,0.575l-3.541-0.189l0.031-0.575c0.033-0.611-0.184-0.929-0.705-0.957
				c-0.521-0.027-0.791,0.282-0.822,0.876c-0.029,0.539,0.146,0.98,0.752,1.788L158.143,35.443z M156.213,38.171l-2.176-2.82
				c-0.488,0.37-0.785,0.896-0.82,1.524c-0.057,1.078,0.6,1.618,1.588,1.671C155.309,38.573,155.836,38.457,156.213,38.171z"/>
			<path d="M168.443,42.374l3.18-14.138l5.516,1.241c4.514,1.016,5.152,4.001,4.172,8.356c-0.996,4.426-2.857,6.793-7.354,5.781
				L168.443,42.374z M176.363,32.348l-1.58-0.355l-1.877,8.342l1.58,0.355c1.492,0.336,2.256-0.267,3.031-3.709
				C178.303,33.485,177.785,32.668,176.363,32.348z"/>
			<path d="M185.492,31.588l8.924,3.055l-1.002,2.929l-5.229-1.79l-0.781,2.282l4.529,1.551l-1.008,2.945l-4.529-1.55l-0.904,2.639
				l5.33,1.825l-0.996,2.912l-9.025-3.09L185.492,31.588z"/>
			<path d="M196.873,35.632l3.557,1.616l-4.721,10.39l5.129,2.331l-1.273,2.802l-8.686-3.946L196.873,35.632z"/>
			<path d="M203.711,55.119l-3.432-1.867l6.928-12.726l3.432,1.867L203.711,55.119z"/>
			<path d="M213.305,45.617c1.5-0.412,3.08-0.062,4.703,1.008c3.096,2.04,3.75,4.907,1.998,7.762l-3.23-2.129
				c0.736-1.217,0.66-2.28-0.48-3.032c-0.588-0.387-1.121-0.459-1.734-0.216c-0.732,0.294-1.396,1.041-2.477,2.68
				c-1.1,1.668-1.514,2.559-1.504,3.362c0.018,0.659,0.295,1.122,0.881,1.508c1.143,0.753,2.174,0.397,2.977-0.755l3.232,2.129
				c-1.934,2.736-4.816,3.251-7.912,1.211c-1.623-1.069-2.568-2.382-2.781-3.923c-0.25-1.781,0.479-3.607,1.846-5.682
				C210.17,47.496,211.57,46.091,213.305,45.617z"/>
			<path d="M218.789,65.444l-3.074-2.414l8.955-11.398l3.072,2.414L218.789,65.444z"/>
			<path d="M228.568,72.21c-1.549,0.157-3.061-0.465-4.482-1.789c-1.422-1.325-2.135-2.777-2.088-4.332
				c0.051-1.798,1.074-3.477,2.766-5.294c1.67-1.791,3.283-2.943,5.072-3.121c1.549-0.156,3.047,0.452,4.471,1.777
				c1.422,1.325,2.148,2.789,2.102,4.345c-0.064,1.785-1.1,3.477-2.768,5.268C231.947,70.881,230.344,72.02,228.568,72.21z
				 M232.814,63.375c0.092-0.652-0.117-1.167-0.631-1.646s-1.029-0.639-1.674-0.501c-0.77,0.167-1.563,0.807-2.889,2.229
				c-1.348,1.448-1.918,2.271-2.043,3.065c-0.092,0.652,0.105,1.154,0.619,1.633s1.041,0.651,1.686,0.514
				c0.77-0.192,1.551-0.819,2.9-2.268C232.107,64.979,232.689,64.144,232.814,63.375z"/>
			<path d="M233.537,71.637l6.922-5.868l2.514,2.967l-7.1,6.019c-1.25,1.06-1.342,2.035-0.563,2.956
				c0.779,0.92,1.758,0.987,3.008-0.072l7.1-6.019l2.516,2.966l-6.922,5.868c-2.678,2.271-5.514,2.267-8.063-0.741
				C230.398,76.705,230.859,73.907,233.537,71.637z"/>
			<path d="M240.391,89.559c-1.969-2.928-1.52-5.551,0.604-6.977l0.238-0.16l2.168,3.227l-0.268,0.181
				c-0.703,0.472-0.891,1.227-0.307,2.093c0.582,0.866,1.352,0.979,2.053,0.507c0.703-0.472,0.85-1.156,0.301-2.457l-0.418-1.042
				c-0.982-2.333-0.82-4.479,1.375-5.956c2.061-1.386,4.67-0.796,6.506,1.938c1.898,2.823,1.34,5.411-0.514,6.656l-0.209,0.141
				l-2.168-3.227l0.209-0.141c0.611-0.411,0.715-1.066,0.232-1.783c-0.492-0.731-1.127-0.869-1.738-0.457
				c-0.672,0.451-0.744,1.15-0.211,2.461l0.447,1.022c1.02,2.481,0.643,4.535-1.494,5.971
				C245.031,93.011,242.418,92.576,240.391,89.559z"/>
		</g>
	</g>
</g>
<g>
	<g>
		<g>
			<path fill="#FFFFFF" d="M64.131,151.399c2.788-3.152,2.424-12.851,8.607-12.124c2.789,0.364,2.91,4.365,2.425,6.668
				c-0.727,3.395-3.879,5.698-5.819,8.243L64.131,151.399z"/>
			<g>
				<path d="M65.16,152.428c2.496-3.136,2.28-7.613,4.781-10.701c0.716-0.885,2.282-1.517,3.298-0.655
					c0.903,0.768,0.707,2.683,0.642,3.708c-0.219,3.458-3.554,5.876-5.567,8.379c0.588-0.076,1.175-0.152,1.763-0.228
					c-1.738-0.93-3.475-1.859-5.212-2.789c-1.654-0.884-3.124,1.627-1.469,2.512c1.738,0.93,3.475,1.859,5.212,2.788
					c0.531,0.284,1.349,0.288,1.763-0.228c2.463-3.063,5.843-5.672,6.346-9.831c0.364-3.013-0.191-6.68-3.593-7.512
					c-7.312-1.789-7.151,8.891-10.022,12.498C61.947,151.822,63.991,153.896,65.16,152.428z"/>
			</g>
		</g>
		<g>
			<path fill="#FDF0DF" d="M81.208,163.887c-0.445-1.171-1.86-1.616-2.626-2.547c-0.727-0.929-0.606-2.222-0.769-3.313
				c-0.162-1.011-0.121-2.062-0.526-3.072c-0.565-1.454-2.101-2.102-3.354-2.95c-3.313-2.141-6.708-4.202-9.981-6.344
				c-0.486-0.283-0.93-0.404-1.415-0.524c-0.687-0.203-1.414-0.646-2.102-0.728c-0.485-0.081-0.93,0.121-1.172,0.604
				c-0.444,1.052,0.323,2.143,0.647,3.071c0.202,0.485,0.323,0.93,0.565,1.375c1.132,2.102,0.243,4.405-0.323,6.587
				c-0.647,2.303-2.464,4.203-2.545,6.669c-0.122,4.729,5.779,5.98,9.497,5.98c1.09,0,1.778,0.121,2.667,0.809
				c1.01,0.728,1.98,1.697,3.112,2.222c1.009,0.446,2.101,0.93,3.192,1.01c1.334,0.122,1.94-0.646,2.749-1.534
				c0.605-0.769,1.494-1.497,2.222-2.183c0.727-0.688,1.818-1.212,2.102-2.264L81.208,163.887z"/>
			<g>
				<path d="M82.464,163.152c-1.514-2.081-3.067-3.968-3.368-6.661c-0.128-1.146-0.438-2.688-1.367-3.52
					c-3.807-3.416-8.759-5.791-13.043-8.567c-1.867-1.209-4.749-2.188-6.451-0.42c-0.529,0.55-0.696,1.795-0.476,2.473
					c1.341,4.117,2.046,7.373-0.015,11.487c-3.299,6.586,0.125,11.481,7.356,12.092c4.386,0.371,7.532,4.602,12.1,4.009
					c2.426-0.314,6.051-4.517,7.203-6.555c0.244-0.432,0.289-1.041,0-1.469C83.757,165.065,83.11,164.108,82.464,163.152
					c-1.044-1.545-3.566-0.091-2.513,1.469c0.323,0.479,0.646,0.956,0.97,1.435c1.031,1.524,0.727,0.538-0.099,1.276
					c-1.043,0.933-2.06,1.822-3.027,2.842c-2.596,2.735-5.23-0.842-7.29-1.925c-2.31-1.216-4.628-0.912-7.156-1.455
					c-6.091-1.309-3.222-6.569-1.793-10.36c1.196-3.175,1.017-5.675-0.242-8.735c-0.53-1.289-0.708-1.761,0.837-1.159
					c2.39,0.932,4.595,2.64,6.759,4c3.908,2.456,6.833,3.854,7.61,9.012c0.398,2.646,1.982,3.076,3.432,5.069
					C81.043,166.122,83.569,164.673,82.464,163.152z"/>
			</g>
		</g>
		<g>
			<path fill="#FFFFFF" d="M65.852,152.976c1.333-0.041,1.535,1.454,1.777,2.466c0.162,0.687,0.323,1.332,0.162,2.021
				c-0.243,0.93-0.728,1.777-0.889,2.706c-0.121,0.729-0.041,1.497-0.202,2.223c-0.163,0.77-0.445,1.496-0.688,2.264
				c-0.485,1.617-0.687,3.232-1.252,4.81c-0.364,1.051-0.93,2.424-1.658,3.313c-0.808,1.011-2.95,1.051-4.122,0.728
				c-3.516-0.929-1.615-6.063-0.727-8.163c0.768-1.736,1.859-3.516,2.789-5.173c0.525-0.929,1.09-1.776,1.333-2.787
				c0.121-0.485,0.162-0.85,0.485-1.253L65.852,152.976z"/>
			<g>
				<path d="M65.465,154.379c2.042,0.571-0.787,9.631-1.176,11.101c-0.514,1.94-0.893,3.704-1.771,5.542
					c-0.86,1.115-1.911,1.475-3.151,1.079c-1.547-0.28-0.884-2.687-0.698-3.529c0.761-3.451,3.028-6.402,4.625-9.491
					c1.078-2.083,1.921-3.321,3.586-5.076c1.291-1.359-0.764-3.42-2.058-2.057c-3.165,3.335-14.668,19.5-6.999,22.644
					c6.145,2.52,8.176-3.534,9.271-8.338c0.834-3.663,4.96-13.052-0.856-14.681C64.428,151.066,63.661,153.873,65.465,154.379z"/>
			</g>
		</g>
		<g>
			<path fill="#FDF0DF" d="M65.386,153.218c-0.061-0.545-2.243-2.668-3.94-3.516c-1.091-0.545-3.637-1.939-4.607-0.545
				c-1.758,2.545,3.637,6.001,5.577,6.303c0.97,0.121,2.545-0.241,2.788-1.272C65.204,154.188,65.447,153.763,65.386,153.218z"/>
			<g>
				<path d="M66.789,152.831c-0.78-2.452-4.064-4.278-6.288-5.17c-1.361-0.546-2.83-0.85-4.146-0.034
					c-1.208,0.75-1.451,2.304-1.186,3.577c0.951,4.56,11.385,8.972,11.671,2.014c0.078-1.877-2.833-1.869-2.909,0
					c-0.104,2.536-5.107-1.352-5.723-2.284c-1.103-1.668,1.638-0.409,2.227-0.115c0.984,0.49,3.21,1.723,3.548,2.785
					C64.55,155.386,67.359,154.624,66.789,152.831z"/>
			</g>
		</g>
		<g>
			<path fill="#FDF0DF" d="M63.447,158.067c-0.061-0.546-2.243-2.667-3.941-3.516c-1.09-0.546-3.637-1.94-4.606-0.546
				c-1.758,2.547,3.637,6,5.577,6.305c0.97,0.121,2.546-0.242,2.788-1.273C63.264,159.037,63.507,158.612,63.447,158.067z"/>
			<g>
				<path d="M64.85,157.681c-0.779-2.451-4.066-4.278-6.289-5.171c-1.361-0.546-2.83-0.851-4.146-0.034
					c-1.208,0.749-1.451,2.305-1.186,3.578c0.952,4.561,11.38,8.973,11.671,2.014c0.079-1.877-2.831-1.869-2.909,0
					c-0.106,2.537-5.107-1.352-5.724-2.284c-1.104-1.668,1.637-0.409,2.227-0.114c0.983,0.491,3.21,1.722,3.548,2.785
					C62.61,160.235,65.419,159.474,64.85,157.681z"/>
			</g>
		</g>
		<g>
			<path fill="#FDF0DF" d="M60.537,162.917c-0.061-0.546-2.243-2.667-3.939-3.516c-1.091-0.546-3.638-1.939-4.607-0.546
				c-1.758,2.545,3.637,6.001,5.576,6.304c0.97,0.121,2.546-0.242,2.789-1.272C60.355,163.887,60.597,163.462,60.537,162.917z"/>
			<g>
				<path d="M61.939,162.53c-0.779-2.451-4.065-4.279-6.288-5.171c-1.361-0.546-2.829-0.85-4.145-0.034
					c-1.208,0.749-1.451,2.305-1.186,3.577c0.951,4.559,11.386,8.974,11.67,2.015c0.077-1.877-2.833-1.869-2.909,0
					c-0.104,2.535-5.106-1.353-5.723-2.284c-1.103-1.668,1.638-0.409,2.227-0.114c0.984,0.49,3.209,1.722,3.547,2.785
					C59.7,165.085,62.509,164.323,61.939,162.53z"/>
			</g>
		</g>
		<g>
			<g>
				<path d="M71.327,137.33c-3.627-8.499-2.444-15.929,1.409-24.085c1.43-3.027,4.391-3.87,7.334-4.709
					c5.066-1.446,7.361,0.191,8.934,5.125c1.19,3.734,1.692,7.41,0.88,11.288c-0.767,3.662-4.046,5.793-6.748,7.973
					c-1.241,1.001-6.503,6.495-7.922,5.86c-1.469-0.658-2.939-1.315-4.409-1.973c-1.698-0.759-3.179,1.748-1.469,2.513
					c1.379,0.617,4.142,2.634,5.728,2.208c4.524-1.217,7.643-4.543,11.189-7.405c3.485-2.813,6.346-5.702,6.823-10.391
					c0.53-5.206-0.74-10.208-2.818-14.962c-3.029-6.933-14.555-3.239-18.546,0.814c-2.664,2.705-5,8.722-5.4,12.478
					c-0.626,5.881,0.183,11.305,2.501,16.738C69.549,140.519,72.055,139.035,71.327,137.33z"/>
			</g>
		</g>
		<g>
			<g>
				<path d="M82.76,106.006c-4.948,2.06-7.396,6.479-9.279,11.288c-2.355,6.016-3.781,15.041-1.903,21.278
					c0.54,1.792,3.348,1.028,2.806-0.773c-2.398-7.965,0.432-25.356,9.15-28.986C85.24,108.101,84.492,105.285,82.76,106.006
					L82.76,106.006z"/>
			</g>
		</g>
		<g>
			<g>
				<path d="M84.211,106.172c-6.488,9.516-10.382,22.061-10.382,33.468c0,1.876,2.909,1.876,2.909,0
					c0-10.839,3.816-22.952,9.985-31.999C87.784,106.085,85.261,104.632,84.211,106.172L84.211,106.172z"/>
			</g>
		</g>
		<g>
			<g>
				<path d="M71.775,140.654c5.075-3.022,10.563-7.246,12.671-13.004c2.4-6.555,3.535-14.814,0.702-21.356
					c-0.744-1.718-3.25-0.234-2.513,1.469c2.393,5.524,0.972,12.198-0.51,17.791c-1.492,5.628-7.099,9.778-11.819,12.588
					C68.696,139.1,70.159,141.616,71.775,140.654L71.775,140.654z"/>
			</g>
		</g>
	</g>
	<g>
		<g>
			<path fill="#FFFFFF" d="M221.008,130.85c-3.03,0.606-5.334,3.637-7.274-0.121c-1.334-2.425-2.181-5.092-3.152-7.638
				c-0.849-2.546-2.183-4.971-2.304-7.759c-0.12-4.122,3.032-5.577,6.305-7.274c2.062-1.091,4.607-2.424,7.031-2.546
				c1.334,4.971,4.365,8.365,6.91,12.851c1.213,2.062,2.667,4.486,2.911,6.911c0.243,3.152-2.183,2.909-4.606,3.152L221.008,130.85z
				"/>
			<g>
				<path d="M220.621,129.447c-1.75,0.512-4.24,2.617-5.632,0.548c-1.702-2.532-2.514-5.945-3.56-8.808
					c-1.46-4-2.924-7.787,1.504-10.6c2.736-1.739,5.855-3.219,9.066-3.672c-0.597-0.339-1.193-0.677-1.79-1.016
					c2.106,6.689,7.247,11.738,9.542,18.31C230.48,126.296,222.076,128.841,220.621,129.447c-1.706,0.71-0.958,3.527,0.773,2.806
					c1.886-0.786,3.771-1.571,5.657-2.357c2.313-0.963,4.15,0.024,5.551-2.577c1.346-2.501-0.924-6.292-2.078-8.413
					c-2.527-4.644-5.899-8.672-7.508-13.781c-0.262-0.83-0.981-1.13-1.79-1.016c-3.764,0.531-8.158,2.499-11.138,4.88
					c-3.36,2.686-3.658,5.906-2.596,9.932c1.037,3.929,2.988,10.978,5.957,13.946c2.439,2.44,5.323,0.153,7.944-0.614
					C223.191,131.727,222.426,128.918,220.621,129.447z"/>
			</g>
		</g>
		<g>
			<path fill="#FFFFFF" d="M229.011,153.278c-1.941-1.697-2.427-6.668-3.396-8.971c-1.091-2.91-2.061-5.941-2.909-8.971
				c-1.213-4.001-5.335-10.063-4.001-14.549c1.455-4.849,4.97,1.576,5.696,3.516c1.456,4.122,3.154,8.122,4.851,12.124
				c1.817,4.243,2.667,8.486,4.971,12.486c1.091,1.939,3.636,7.153,0.484,8.245C232.162,158.006,229.13,155.703,229.011,153.278
				L229.011,153.278z"/>
			<g>
				<path d="M230.039,152.25c-1.521-1.734-1.873-4.31-2.426-6.464c-0.782-3.051-2.06-6.001-2.98-9.019
					c-0.761-2.493-1.682-4.795-2.745-7.172c-0.779-1.74-1.363-3.412-1.823-5.246c-1.168-4.652,0.799-3.429,1.963-1.58
					c3.096,4.919,5.046,11.746,7.041,17.223c0.999,2.742,1.894,5.483,3.098,8.145c0.461,1.02,1.074,2.001,1.572,3.008
					c0.21,0.527,0.421,1.054,0.631,1.581c0.922,2.133-0.397,2.188-3.955,0.166c-0.44-1.823-3.246-1.05-2.807,0.773
					c1.545,6.401,11.053,6.904,9.852-0.698c-0.224-1.411-0.99-2.849-1.616-4.115c-1.563-3.157-2.822-6.304-3.969-9.633
					c-1.955-5.68-4.229-11.659-6.86-17.058c-0.771-1.584-2.837-5.141-5.144-4.548c-3.194,0.821-2.979,4.915-2.611,7.509
					c0.354,2.501,1.697,5.005,2.72,7.289c1.518,3.392,2.391,7.013,3.594,10.524c1.275,3.721,1.753,8.346,4.41,11.372
					C229.222,155.72,231.271,153.653,230.039,152.25z"/>
			</g>
		</g>
		<g>
			<path fill="#FDF0DF" d="M218.462,166.856c0.442-1.171,1.857-1.616,2.625-2.547c0.729-0.928,0.607-2.222,0.77-3.313
				c0.161-1.011,0.121-2.062,0.524-3.07c0.566-1.456,2.102-2.102,3.354-2.951c3.313-2.142,6.709-4.202,9.981-6.345
				c0.485-0.282,0.931-0.403,1.415-0.524c0.687-0.202,1.413-0.647,2.102-0.729c0.484-0.081,0.93,0.121,1.171,0.606
				c0.445,1.05-0.322,2.143-0.647,3.07c-0.2,0.486-0.321,0.931-0.564,1.375c-1.132,2.102-0.241,4.404,0.323,6.587
				c0.647,2.304,2.466,4.203,2.546,6.669c0.122,4.729-5.777,5.981-9.496,5.981c-1.092,0-1.779,0.12-2.667,0.808
				c-1.009,0.728-1.98,1.698-3.113,2.223c-1.009,0.444-2.101,0.931-3.191,1.009c-1.334,0.121-1.94-0.646-2.749-1.533
				c-0.606-0.771-1.494-1.497-2.221-2.183c-0.729-0.688-1.819-1.212-2.102-2.263L218.462,166.856z"/>
			<g>
				<path d="M219.718,167.591c0.979-1.35,2.983-2.09,3.259-3.923c0.138-0.909,0.246-1.757,0.335-2.671
					c0.358-3.717,3.419-4.941,6.014-6.585c1.43-0.905,2.865-1.802,4.296-2.705c0.695-0.438,5.552-3.265,5.145-2.014
					c-1.021,3.13-1.792,4.758-1.101,8.056c0.82,3.913,5.587,9.318-0.296,11.702c-2.154,0.873-4.974,0.066-6.948,1.105
					c-1.169,0.615-1.533,0.875-2.555,1.672c-3.659,2.854-5.443,1.273-8.214-1.267c-0.8-0.734-1.979-0.344-1.371-1.244
					C218.761,169.009,219.239,168.3,219.718,167.591c1.054-1.56-1.468-3.014-2.512-1.469c-0.646,0.957-1.293,1.914-1.939,2.871
					c-0.29,0.429-0.244,1.036,0,1.469c1.145,2.029,4.517,5.868,6.814,6.501c4.56,1.254,7.309-3.751,11.455-3.868
					c5.966-0.169,12.385-4.251,9.037-10.893c-1.792-3.556-3.051-6.771-1.413-10.761c0.539-1.314,1.044-2.402,0.647-3.844
					c-0.835-3.035-4.808-0.988-6.478-0.37c-2.083,0.772-4.153,2.584-6.04,3.77c-2.107,1.325-4.657,2.529-6.519,4.198
					c-1.326,1.189-1.746,2.139-2.146,3.879c-0.631,2.743-1.793,4.807-3.419,7.048C216.102,167.644,218.628,169.094,219.718,167.591z
					"/>
			</g>
		</g>
		<g>
			<path fill="#FFFFFF" d="M233.817,155.945c-1.334-0.039-1.534,1.455-1.777,2.465c-0.162,0.688-0.324,1.334-0.162,2.021
				c0.242,0.931,0.727,1.777,0.89,2.708c0.121,0.727,0.041,1.495,0.201,2.224c0.162,0.767,0.445,1.494,0.687,2.261
				c0.485,1.618,0.689,3.234,1.252,4.811c0.365,1.051,0.931,2.425,1.658,3.313c0.809,1.012,2.95,1.051,4.122,0.728
				c3.517-0.929,1.616-6.061,0.729-8.163c-0.768-1.737-1.859-3.515-2.79-5.172c-0.523-0.931-1.09-1.777-1.333-2.789
				c-0.121-0.484-0.161-0.849-0.484-1.252L233.817,155.945z"/>
			<g>
				<path d="M233.431,154.542c-5.29,1.487-2.302,10.063-1.179,13.468c1.658,5.025,2.044,11.099,8.822,9.867
					c4.657-0.847,2.889-7.159,1.745-9.953c-1.989-4.857-4.402-9.244-7.974-13.007c-1.293-1.364-3.348,0.697-2.057,2.057
					c3.507,3.696,6.338,8.886,7.979,13.756c0.393,1.164,1.204,3.656-0.468,4.341c-3.173,1.301-4.147-3.353-4.646-5.413
					c-0.38-1.572-3.574-11.712-1.451-12.309C236.008,156.841,235.24,154.033,233.431,154.542z"/>
			</g>
		</g>
		<g>
			<path fill="#FDF0DF" d="M234.284,156.188c0.061-0.546,2.241-2.667,3.939-3.517c1.091-0.545,3.636-1.939,4.607-0.545
				c1.756,2.547-3.639,6.002-5.578,6.305c-0.969,0.122-2.546-0.242-2.788-1.272C234.465,157.158,234.223,156.734,234.284,156.188z"
				/>
			<g>
				<path d="M235.688,156.574c0.31-0.978,2.377-2.163,3.271-2.647c0.666-0.36,3.499-1.809,2.503-0.022
					c-0.587,1.051-5.625,4.737-5.722,2.283c-0.074-1.87-2.983-1.877-2.91,0c0.114,2.886,2.856,4.338,5.512,3.455
					c2.339-0.776,5.251-2.743,6.063-5.184c0.372-1.116,0.285-2.456-0.545-3.361c-1.159-1.267-2.785-1.146-4.291-0.628
					c-2.349,0.807-5.884,2.801-6.688,5.332C232.312,157.594,235.121,158.355,235.688,156.574z"/>
			</g>
		</g>
		<g>
			<path fill="#FDF0DF" d="M236.224,161.037c0.061-0.545,2.242-2.668,3.939-3.516c1.091-0.546,3.637-1.939,4.606-0.546
				c1.758,2.546-3.637,6.002-5.577,6.304c-0.969,0.121-2.545-0.242-2.788-1.273C236.404,162.006,236.163,161.582,236.224,161.037z"
				/>
			<g>
				<path d="M237.627,161.424c0.311-0.977,2.376-2.163,3.271-2.646c0.665-0.359,3.499-1.81,2.503-0.024
					c-0.586,1.05-5.623,4.737-5.722,2.284c-0.076-1.869-2.985-1.877-2.91,0c0.117,2.885,2.856,4.336,5.512,3.455
					c2.339-0.776,5.252-2.744,6.064-5.185c0.371-1.116,0.283-2.454-0.547-3.36c-1.158-1.267-2.785-1.145-4.29-0.628
					c-2.349,0.807-5.883,2.802-6.688,5.331C234.25,162.443,237.06,163.205,237.627,161.424z"/>
			</g>
		</g>
		<g>
			<path fill="#FDF0DF" d="M239.132,165.887c0.061-0.546,2.243-2.667,3.94-3.517c1.092-0.545,3.637-1.939,4.608-0.545
				c1.756,2.546-3.639,6-5.578,6.305c-0.97,0.122-2.546-0.242-2.788-1.273C239.314,166.856,239.071,166.432,239.132,165.887z"/>
			<g>
				<path d="M240.535,166.273c0.31-0.978,2.378-2.163,3.271-2.647c0.665-0.36,3.5-1.809,2.504-0.023
					c-0.586,1.05-5.622,4.739-5.724,2.284c-0.078-1.869-2.987-1.877-2.91,0c0.12,2.884,2.856,4.339,5.514,3.455
					c2.338-0.778,5.251-2.744,6.063-5.185c0.372-1.116,0.285-2.455-0.545-3.36c-1.159-1.267-2.785-1.146-4.291-0.628
					c-2.349,0.807-5.885,2.801-6.689,5.331C237.159,167.293,239.969,168.055,240.535,166.273z"/>
			</g>
		</g>
	</g>
	<g>
		<path fill="#F5E85B" d="M91.489,168.775c5.172-6.95-1.616-13.739,0.646-20.851c1.617-4.85,6.466-4.526,10.669-6.143
			c2.101-0.808,4.203-1.778,5.333-3.718c1.455-2.264,1.293-3.233,3.88-4.526c13.093-6.79,26.51-9.537,41.219-7.275
			c7.112,1.293,14.387,0.809,21.661,1.617c4.687,0.485,11.476,1.778,11.96,7.273c5.498-1.778,9.376-1.131,12.934,3.719
			c2.585,3.395,2.425,6.951,6.143,9.536c3.718,2.263,2.908,6.79,0.647,10.184c-2.265,3.558-3.074,6.144-3.233,10.347
			c-0.162,5.011,0.484,7.112-4.042,10.185c-4.526,2.908-10.021,4.524-14.871,6.625c-4.365,1.779-7.597,5.173-12.124,6.468
			c-7.759,2.425-16.164,3.07-24.248,3.395c-7.273,0.321-14.87,1.454-22.145,0.321c-5.497-0.646-9.537-4.849-13.901-7.76
			c-3.88-2.745-7.759-6.141-11.154-9.374c-2.424-2.263-8.567-6.304-9.375-9.538"/>
		<g>
			<path fill="#F5E85B" d="M92.745,169.51c1.871-2.946,2.584-5.923,1.957-9.415c-1.065-5.929-3.961-13.234,3.834-15.574
				c3.599-1.08,6.957-1.825,9.844-4.374c1.29-1.14,1.765-3.02,2.834-4.335c1.721-2.114,6.705-3.495,9.093-4.452
				c11.356-4.548,22.753-4.856,34.711-3.354c5.998,0.754,12.04,0.709,18.062,1.152c4.512,0.332,11.407,0.91,12.375,6.382
				c0.138,0.774,1.082,1.221,1.79,1.016c4.136-1.199,7.364-1.108,10.539,2.125c2.427,2.471,2.753,6.094,4.957,8.652
				c0.986,1.146,2.048,2.013,3.24,2.937c2.505,1.94,0.445,5.737-0.655,7.587c-1.504,2.526-2.584,4.904-3.127,7.805
				c-0.417,2.232-0.316,4.546-0.379,6.806c-0.119,4.313-4.138,6.069-7.54,7.716c-6.325,3.061-12.475,5.249-18.518,8.919
				c-6.844,4.156-16.452,4.428-24.218,4.89c-7.893,0.471-15.901,1.385-23.8,0.723c-7.617-0.64-14.827-7.381-20.457-12.075
				c-2.657-2.216-5.079-4.686-7.769-6.86c-2.336-1.889-5.537-3.988-6.627-6.906c-0.651-1.741-3.464-0.987-2.806,0.773
				c2.127,5.69,9.363,9.934,13.748,13.843c5.927,5.285,13.665,12.415,21.699,13.846c9.478,1.687,19.979,0.012,29.516-0.66
				c9.415-0.664,18.045-2.365,26.044-7.49c6.798-4.356,16.39-5.117,21.913-11.408c1.545-1.76,1.692-4.15,1.753-6.37
				c0.143-5.139,1.145-8.829,3.775-13.249c1.237-2.079,2.003-5.281,0.979-7.592c-0.624-1.407-1.308-2.223-2.551-3.186
				c-2.292-1.776-3.239-4.135-4.387-6.683c-3.106-6.894-9.218-8.943-16.104-6.946c0.597,0.339,1.193,0.677,1.79,1.016
				c-1.656-9.355-15.434-8.637-22.444-8.9c-7.134-0.268-14.134-1.577-21.258-1.822c-6.279-0.215-12.565,0.769-18.616,2.375
				c-4.986,1.323-12.002,3.381-16.038,6.717c-1.417,1.17-2.095,2.632-3.023,4.193c-1.737,2.924-6.111,3.596-9.119,4.385
				c-13.873,3.64-2.253,18.014-7.53,26.326C89.224,169.63,91.743,171.089,92.745,169.51L92.745,169.51z"/>
		</g>
	</g>
	<g>
		<g>
			<g>
				<path fill="#FDF0DF" d="M122.849,185.911c1.939,3.719,9.698,5.334,13.254,6.789c3.718,1.616,7.275,2.263,11.315,2.425
					c8.406,0.485,17.62-0.969,25.219-4.527c4.039-1.939,8.565-3.717,10.828-8.08c0.647-1.455,1.295-2.749,1.132-4.365
					c-0.161-2.749-2.587-3.395-3.556-5.819c-2.102-5.013,5.011-7.921,2.102-12.771c-2.102-3.232-8.407-3.072-11.801-3.718
					c-3.396-0.646-6.789-0.484-9.859-1.132c-5.174-0.97-6.467-4.365-8.892-8.729c-4.688-8.244-13.417-4.042-20.529-1.94
					c5.011,0.323,8.729,6.145,5.173,10.508c-1.132,1.454-2.586,1.778-4.204,2.263c-0.97,0.323-3.395,0.162-4.202,0.97
					c-0.808,0.484-0.646,0.97-1.13,1.941c-1.456,2.261-4.365,5.333-7.114,5.171c3.234,1.94,4.041,8.407,4.526,11.962
					c0.161,1.294,0.323,2.91,0.161,4.204C125.111,183.487,123.981,183.972,122.849,185.911L122.849,185.911z"/>
				<g>
					<path fill="#FDF0DF" d="M121.592,186.646c3.085,4.641,9.257,5.603,14.124,7.458c8.317,3.17,17.176,3.029,25.86,1.521
						c7.036-1.222,14.79-4.196,20.344-8.774c1.896-1.563,3.928-4.652,4.055-7.171c0.057-1.131,0.196-2.421-0.374-3.478
						c-1.072-1.987-3.31-3.466-3.497-5.899c-0.185-2.382,2.605-5.072,3.121-7.463c0.417-1.936-0.533-3.686-1.726-5.105
						c-1.62-1.93-4.974-2.36-7.256-2.705c-3.851-0.582-7.712-1.028-11.595-1.333c-5.346-0.419-7.729-2.8-10.164-7.28
						c-1.392-2.56-2.963-4.547-5.597-5.875c-5.269-2.656-12.13,0.547-17.213,2.101c-1.266,0.387-1.508,2.57,0,2.806
						c3.3,0.517,5.99,2.697,5.356,6.448c-0.608,3.6-5.176,3.564-7.728,4.04c-4.124,0.769-3.563,6.998-8.718,7.507
						c-1.511,0.149-1.894,1.816-0.734,2.711c2.592,2.002,3.052,5.905,3.549,8.91c0.683,4.135,0.479,6.654-1.807,10.114
						c-1.038,1.57,1.483,3.026,2.513,1.469c2.56-3.874,2.91-6.521,2.267-11.21c-0.595-4.345-1.411-8.982-5.053-11.795
						c-0.245,0.903-0.49,1.807-0.734,2.711c3.254-0.321,5.782-2.213,7.662-4.885c2.443-3.474,6.41-2.311,9.11-4.987
						c5.15-5.104,2.021-12.754-4.908-13.838c0,0.935,0,1.871,0,2.806c4.938-1.509,10.929-4.432,15.963-1.894
						c4.034,2.034,5.074,8.32,8.868,11.111c3.753,2.76,10.744,2.256,15.055,2.795c2.925,0.365,5.896,0.513,8.554,1.908
						c3.846,2.018-0.564,6.494-1.243,8.703c-1.667,5.426,4.886,8.376,2.564,13.713c-2.551,5.863-12.518,8.756-18.006,10.274
						c-7.296,2.02-15.555,2.354-22.971,0.821c-2.668-0.551-5.172-1.783-7.752-2.639c-3.239-1.073-7.375-2.055-9.375-5.063
						C123.071,183.623,120.55,185.078,121.592,186.646z"/>
				</g>
			</g>
		</g>
		<g>
			<path fill="#FDF0DF" d="M140.873,195.529c0,3.88,3.718,7.273,7.354,7.84c4.286,0.728,7.598-1.536,9.457-5.253
				c0.647-1.375,1.051-2.425-0.484-3.233c-1.294-0.646-2.91-0.566-4.364-0.646c-2.021-0.081-4.042-0.324-6.063-0.406
				c-1.373,0-4.767-0.646-5.818,0.566c-0.968,1.213,0.405,2.426,1.213,3.314c0.403,0.483,0.808,0.969,1.213,1.535L140.873,195.529z"
				/>
			<g>
				<path fill="#FDF0DF" d="M139.418,195.529c0.442,5.639,5.226,9.345,10.715,9.424c4.395,0.063,9.65-4.419,9.54-8.979
					c-0.052-2.146-2.931-2.983-4.597-3.082c-3.397-0.201-6.797-0.382-10.191-0.639c-1.396-0.106-4.449-0.252-5.189,1.409
					c-1.236,2.773,0.819,4.203,2.426,6.318c1.104,1.452,3.583,0.119,2.513-1.469c-0.835-1.239-1.67-2.479-2.505-3.718
					c-1.042-1.547-3.564-0.092-2.513,1.469c0.835,1.239,1.67,2.479,2.505,3.718c0.837-0.489,1.675-0.979,2.513-1.469
					c-0.63-0.829-1.26-1.635-1.97-2.399c-1.373-1.477,1.587-0.983,2.221-0.95c3.022,0.161,6.037,0.454,9.062,0.572
					c5.495,0.215-0.071,5.325-2.442,6.098c-4.114,1.341-8.853-2.161-9.178-6.304C142.182,193.672,139.271,193.657,139.418,195.529z"
					/>
			</g>
		</g>
	</g>
	<g>
		<path fill="#FFFFFF" d="M83.164,161.584c-5.334,3.879-9.457,9.214-14.305,13.577l0.727,0.484
			c2.182,3.637,3.637,7.032,6.546,10.185c10.184,11.396,26.187,18.67,40.735,21.095c3.637,0.727,15.034,6.304,18.428,4.364
			c2.183-1.455-0.242-10.669-0.242-13.82c-11.397-1.214-19.398-6.548-28.612-13.093C96.5,177.344,89.711,172.252,83.164,161.584"/>
		<g>
			<path d="M82.43,160.328c-5.362,4.089-9.67,9.239-14.6,13.805c-0.722,0.669-0.456,1.784,0.294,2.284
				c1.596,1.063,2.664,4.306,3.641,5.961c1.218,2.063,2.759,3.853,4.376,5.606c3.249,3.526,7.129,6.457,11.111,9.097
				c8.726,5.786,18.965,9.428,29.228,11.247c6.169,1.093,12.125,5.878,18.634,4.6c5.166-1.014,1.526-12.353,1.393-15.459
				c-0.037-0.869-0.64-1.352-1.455-1.455c-11.237-1.418-20.193-7.445-29.214-13.842c-8.496-6.024-15.826-12.438-21.419-21.322
				c-0.997-1.583-3.515-0.124-2.513,1.469c5.854,9.298,13.599,16.035,22.463,22.366c9.512,6.794,18.865,12.747,30.683,14.239
				c-0.485-0.485-0.97-0.97-1.455-1.455c0.116,2.721,0.69,5.417,1.002,8.119c0.077,0.664,0.597,4.178-0.26,4.534
				c-1.294,0.539-3.234-0.135-4.488-0.432c-6.245-1.476-12.21-3.893-18.479-5.396c-9.059-2.172-17.634-6.176-25.257-11.497
				c-4.104-2.864-7.953-6.424-10.917-10.464c-1.934-2.634-2.839-6.585-5.607-8.429c0.098,0.762,0.196,1.522,0.294,2.284
				c4.737-4.388,8.857-9.419,14.011-13.35C85.369,161.719,83.922,159.189,82.43,160.328L82.43,160.328z"/>
		</g>
	</g>
	<g>
		<path fill="#FFFFFF" d="M215.979,162.553c5.334,3.88,9.456,9.214,14.306,13.578l-0.728,0.486
			c-2.183,3.637-3.637,7.03-6.546,10.182c-10.185,11.396-26.188,18.671-40.734,21.095c-3.639,0.729-15.034,6.306-18.429,4.365
			c-2.183-1.454,0.243-10.669,0.243-13.821c11.396-1.211,19.397-6.546,28.611-13.093
			C202.643,178.313,209.432,173.222,215.979,162.553"/>
		<g>
			<path d="M215.244,163.809c5.153,3.932,9.273,8.963,14.012,13.351c0.098-0.762,0.196-1.522,0.294-2.284
				c-2.314,1.547-3.303,4.663-4.685,7.004c-2.384,4.037-6.038,7.292-9.634,10.229c-7.507,6.131-16.72,10.162-25.98,12.771
				c-3.127,0.881-6.386,1.217-9.469,2.227c-3.159,1.034-6.229,2.303-9.416,3.263c-1.471,0.443-2.969,0.761-4.504,0.845
				c-1.978,0.106-1.48-2.189-1.417-3.538c0.146-3.101,0.968-6.135,1.101-9.236c-0.485,0.485-0.97,0.97-1.455,1.455
				c11.843-1.492,21.134-7.469,30.682-14.239c8.877-6.294,16.619-13.084,22.462-22.366c1.003-1.593-1.516-3.052-2.512-1.469
				c-5.604,8.901-12.933,15.262-21.419,21.322c-8.987,6.42-17.998,12.43-29.213,13.842c-0.814,0.103-1.418,0.586-1.455,1.455
				c-0.142,3.305-3.581,13.389,0.825,15.225c5.529,2.302,13.377-2.688,18.601-4.222c4.603-1.353,9.316-2.033,13.891-3.615
				c5.103-1.765,9.977-4.163,14.602-6.933c4.129-2.473,7.915-5.507,11.373-8.841c1.682-1.621,3.15-3.401,4.528-5.279
				c1.474-2.008,2.525-6.023,4.563-7.386c0.749-0.501,1.018-1.615,0.294-2.284c-4.929-4.565-9.238-9.716-14.6-13.806
				C215.221,160.158,213.773,162.688,215.244,163.809L215.244,163.809z"/>
		</g>
	</g>
	<g>
		<g>
			<path d="M133.678,126.425c0.074,4.265-3.123,4.077-6.445,4.48c-2.846,0.345-5.122,1.352-7.35,3.149
				c-3.555,2.869-5.447,10.633-0.169,12.686c1.751,0.681,2.502-2.133,0.773-2.806c-1.505-0.585-1.138-3.022-0.924-4.191
				c0.371-2.03,2.151-3.568,3.767-4.636c2.158-1.426,4.868-1.313,7.321-1.691c4.056-0.625,6.009-2.851,5.937-6.992
				C136.555,124.551,133.645,124.547,133.678,126.425L133.678,126.425z"/>
		</g>
	</g>
	<g>
		<g>
			<path d="M117.925,138.262c-3.351-1.815-7.518-6.033-11.789-4.672c-4.076,1.298-5.448,4.303-5.683,8.406
				c-0.177,3.096,0.785,7.894,3.812,9.551c2.352,1.288,6.96,1.517,8.181-1.588c1.114-2.834-1.409-5.025-3.506-6.521
				c-3.45-2.46-8.079-1.611-11.315,0.728c-6.488,4.689-4.97,16.243,2.131,19.409c3.836,1.71,13.766,1.625,8.819-4.795
				c-2.017-2.617-5.679-3.111-8.669-2.298c-3.824,1.041-4.836,5.742-5.166,9.09c-0.845,8.559,9.41,12.313,11.522,2.922
				c0.512-2.274-1.244-4.827-3.736-4.656c-3.696,0.253-6.959,2.673-9.2,5.514c-3.262,4.137-1.504,10.711,2.602,13.451
				c1.566,1.045,3.021-1.477,1.469-2.512c-4.162-2.777-3.2-8.028-0.094-10.946c1.095-1.028,2.463-1.822,3.854-2.367
				c2.181,0.822,2.621,2.029,1.321,3.621c-3.302,0.111-4.912-1.153-4.829-3.793c-0.564-5.05,4.669-11.415,9.073-5.7
				c0.945,1.227-5.436-0.016-6.193-0.353c-9.548-4.257-0.952-21.772,8.267-13.753c-1.189,0.518-2.378,1.035-3.567,1.553
				c-0.817-1.033-1.359-2.18-1.625-3.443c-0.595-2.083-0.326-4.835,0.534-6.78c2.406-5.438,9.588,0.966,12.32,2.446
				C118.106,141.668,119.575,139.156,117.925,138.262L117.925,138.262z"/>
		</g>
	</g>
	<g>
		<g>
			<path d="M144.077,127.781c1.101,5.586,4.641,13.058,10.917,14.021c3.942,0.606,8.122-3.537,5.966-7.545
				c-2.968-5.519-8.047-1.987-8.608,2.967c-0.75,6.622,1.231,12.093,8.436,13.144c5.89,0.859,11.871-0.879,14.704-6.333
				c2.146-4.132-0.576-9.483-5.739-8.289c-5.798,1.341-6.432,7.995-5.582,12.893c1.057,6.092,6.984,12.787,13.314,13.348
				c1.87,0.165,1.854-2.745,0-2.91c-6.721-0.596-11.048-9.158-10.785-15.059c0.112-1.145,0.42-2.234,0.922-3.269
				c1.474-3.256,6.509-0.399,4.852,2.792c-1.482,2.854-4.565,3.658-7.505,4.005c-2.847,0.335-5.977,0.018-8.247-1.92
				c-2.52-2.15-1.765-6.514-1.292-9.317c2.153,2.255,1.954,3.104-0.598,2.544c-2.111-0.324-3.446-2.365-4.596-3.896
				c-1.78-2.37-2.785-5.069-3.353-7.95C146.52,125.168,143.715,125.949,144.077,127.781L144.077,127.781z"/>
		</g>
	</g>
	<g>
		<g>
			<path d="M167.728,125.558c-5.201,5.637-0.648,15.566,4.105,20.024c6.119,5.739,14.682-2.5,10.325-9.144
				c-3.663-5.586-13.531-0.873-13.643,4.958c-0.126,6.558,9.49,11.879,14.683,13.607c7.411,2.467,17.326-2.311,14.077-11.144
				c-1.095-2.975-4.349-3.827-7.174-3.359c-2.771,0.459-3.634,3.721-3.854,6.033c-0.638,6.732,3.206,14.061,10.073,14.963
				c4.265,0.56,8.005-0.902,10.81-4.03c1.743-1.945,3.955-6.17,1.556-8.535c-3.611-3.56-7.564-0.601-8.682,3.616
				c-1.585,5.989-1.488,13.947,2.247,19.065c1.094,1.499,3.62,0.05,2.512-1.469c-3.482-4.772-2.495-10.106-2.091-15.637
				c0.05-3.717,1.196-3.927,3.439-0.629c-0.568,1.183-1.554,2.136-2.485,3.032c-2.203,2.118-7.084,2.325-9.817,1.147
				c-3.08-1.327-4.282-6.809-4.616-9.718c-0.188-1.646-0.21-4.306,1.682-5.034c3.396,0.471,4.724,2.136,3.984,4.994
				c-0.457,3.136-3.542,4.065-6.149,4.317c-5.401,0.52-18.548-5.394-17.178-12.312c0.674-3.402,8.5-5.071,8.862-0.141
				c0.617,8.381-7.098,3.165-8.918,0.525c-2.229-3.235-4.845-9.659-1.692-13.075C171.055,126.239,169.002,124.176,167.728,125.558
				L167.728,125.558z"/>
		</g>
	</g>
	<g>
		<g>
			<path d="M186.052,139.357c-0.086-3.485,3.675-4.322,6.357-4.435c3.97-0.167,8.087,4.264,8.513,7.99
				c-0.223,2.218-1.269,3.792-3.135,4.719c-1.371,0.859-7.105,1.268-3.092-1.758c1.923-1.449,5.828-1.236,7.142,0.868
				c1.539,2.464,0.892,6.664,1.149,9.451c0.258,2.788,1.081,5.405,3.213,7.308c1.395,1.246,3.459-0.805,2.057-2.057
				c-5.3-4.733,0.308-14.462-6.238-18.504c-2.725-1.682-7.145-0.818-9.538,0.986c-1.78,1.343-3.392,4.822-1.01,6.443
				c3.228,2.197,7.44,0.361,10.059-1.918c3.346-2.912,2.604-8.077,0.057-11.182c-3.118-3.803-6.733-5.701-11.638-5.013
				c-3.717,0.521-6.9,3.244-6.806,7.103C183.188,141.23,186.098,141.234,186.052,139.357L186.052,139.357z"/>
		</g>
	</g>
	<g>
		<g>
			<path d="M193.038,185.676c0.898,1.844,3.186,5.283-1.259,4.621c-4.081-0.607-4.571-5.455-4.036-8.601
				c0.499-2.938,3.098-4.362,5.646-5.214c0.646-0.265,1.311-0.469,1.993-0.613c-0.186,0.668-0.372,1.336-0.558,2.004
				c-0.922-0.313-1.787-0.737-2.597-1.273c-1.742-1.027-3.326-2.517-4.556-4.119c-3.447-4.49,4.553-7.86,7.848-6.329
				c3.972,1.847,0.28,3.117-2.736,1.746c-5.187-2.357-4.145-7.819-0.692-11.024c1.378-1.278-0.684-3.331-2.057-2.057
				c-5.449,5.057-5.202,11.362,1.28,15.594c3.463,2.259,11.104,1.71,8.723-3.863c-2.537-5.937-10.72-4.037-14.144-0.462
				c-5.096,5.322,1.524,11.058,5.878,13.624c2.232,1.316,4.469,1.644,6.63,0.145c1.496-1.038,2.868-3.495,1.82-5.283
				c-2.955-5.045-12.106,0.637-14.284,3.815c-3.577,5.223-0.627,12.878,5.067,14.717c7.155,2.312,6.579-4.724,4.544-8.896
				C194.728,182.521,192.219,183.996,193.038,185.676L193.038,185.676z"/>
		</g>
	</g>
	<g>
		<g>
			<path d="M108.947,193.347c2.194-0.027,4.63-0.271,6.403-1.699c2.014-1.623,2.163-4.08,1.627-6.446
				c-1.126-4.973-7.567-5.813-11.513-4.104c-1.718,0.743-0.234,3.25,1.469,2.512c2.455-1.063,6.37-0.516,7.239,2.366
				c1.118,3.708-2.353,4.427-5.224,4.462C107.072,190.46,107.07,193.369,108.947,193.347L108.947,193.347z"/>
		</g>
	</g>
	<g>
		<g>
			<path fill="#FFFFFF" d="M114.12,133.38c-0.647-2.425-0.647-3.88-1.778-5.982c-1.456-2.424-3.072-4.526-4.688-6.627
				c-2.425-3.556-3.879-7.598-5.657-11.639c-3.233-7.273-4.526-14.709-5.334-22.469c-0.323-3.395-0.647-6.789-0.485-10.345
				c0.162-3.879-0.324-8.568,2.101-11.962c4.526-6.627,16.165-8.405,21.661-2.424c6.143,6.789,8.405,16.326,10.506,24.894
				c0.97,3.556,2.264,7.274,2.102,10.992c-0.161,2.263-0.808,4.042-3.07,4.688c-0.809,0.162-4.365,0.485-5.011,0
				c-2.426-1.293-2.91-7.921-3.233-10.345c-0.323-4.364-0.162-8.567,1.293-12.608c2.747-7.436,4.687-18.59,11.638-23.115
				c7.273-4.85,19.884-9.699,26.025-0.97c5.818,8.245,3.719,21.661,4.85,31.037c0.484,4.688,1.616,8.243-0.972,12.446
				c-1.777,2.91-6.302,4.526-7.919,1.131c-4.041-8.89,2.102-21.337,6.142-29.096c2.749-5.172,6.143-8.567,11.154-11.638
				c3.718-2.263,9.375-6.465,14.063-5.173c6.467,1.778,7.923,16.488,8.245,21.984c0.485,8.729,0,16.649-3.233,25.055
				c-1.454,3.879-2.586,8.083-3.719,12.124c-0.807,3.718-0.807,7.436-1.778,11.153c-0.646,2.749-1.616,6.143-1.453,8.892
				c-3.558,0.161-7.76-4.042-11.316-5.334c-5.01-1.617-11.153-1.778-16.486-1.778c-11.155,0-23.602-1.293-34.271,1.455
				c-1.939,0.485-3.879,0.97-5.496,1.778C116.06,130.47,115.897,132.411,114.12,133.38L114.12,133.38z"/>
			<g>
				<path d="M115.522,132.994c-1.396-5.811-4.293-9.328-7.479-14.312c-4.104-6.419-6.771-14.478-8.406-21.852
					c-1.592-7.179-2.151-14.664-1.967-22c0.105-4.206,0.082-7.925,3.113-11.204c2.439-2.638,6.297-3.699,9.749-3.882
					c14.214-0.755,17.441,22.846,19.986,32.904c0.569,2.25,1.865,8.145-2.556,8.582c-1.051,0.104-2.612,0.386-3.381-0.636
					c-1.44-1.912-1.533-5.423-1.8-7.675c-0.866-7.304,1.41-13.587,3.559-20.397c1.867-5.916,4.065-11.924,9.494-15.434
					c4.954-3.203,11.257-5.767,17.237-4.728c13.292,2.312,9.577,26.203,10.692,35.666c0.435,3.687,0.881,6.729-0.952,10.189
					c-1.704,3.217-5.332,1.73-6.148-1.15c-0.484-1.708-0.393-3.536-0.316-5.283c0.311-7.042,4.032-13.947,7.199-20.063
					c3.184-6.146,8.331-9.708,14.048-13.25c2.952-1.829,7.177-4.287,10.637-2.375c2.415,1.333,3.435,5.111,4.151,7.517
					c2.974,9.979,2.84,21.877,0.451,31.866c-1.565,6.549-4.546,12.668-5.78,19.332c-0.661,3.572-0.921,7.169-1.777,10.716
					c-0.633,2.619-1.15,5.158-1.162,7.856c0.485-0.485,0.97-0.97,1.455-1.455c-3.47-0.281-6.44-2.994-9.374-4.607
					c-2.396-1.317-5.33-1.638-7.987-2c-6.818-0.929-13.878-0.53-20.747-0.711c-6.456-0.17-13.045-0.323-19.441,0.73
					c-3.105,0.511-6.155,1.2-9.138,2.209c-2.853,0.965-3.26,2.882-5.495,4.577c-1.474,1.119-0.027,3.647,1.469,2.513
					c1.464-1.111,2.391-2.84,3.879-3.88c2.759-1.929,8.153-2.358,11.352-2.786c6.884-0.921,13.938-0.546,20.857-0.361
					c6.612,0.177,13.255-0.132,19.797,1.033c5.484,0.977,9.26,5.741,14.829,6.192c0.794,0.064,1.451-0.71,1.455-1.455
					c0.015-3.546,1.051-6.927,1.814-10.364c0.812-3.654,0.838-7.408,1.852-11.035c1.989-7.12,5.114-14.046,6.066-21.412
					c1.284-9.922,1.005-21.38-2.629-30.869c-3.693-9.642-11.867-7.546-19.214-2.994c-4.294,2.66-8.529,5.46-11.467,9.677
					c-3.406,4.891-5.904,10.538-7.945,16.123c-1.925,5.27-5.176,22.969,5.452,20.631c3.469-0.763,5.786-5.011,6.079-8.243
					c0.538-5.942-0.888-12.269-0.996-18.273c-0.153-8.521-0.265-22.662-10.034-26.37c-8.21-3.116-18.545,1.216-24.808,6.701
					c-6.075,5.32-7.504,15.002-10.071,22.211c-1.672,4.695-1.723,9.783-1.143,14.677c0.314,2.653,0.497,7.392,2.842,9.214
					c3.663,2.847,10.395,0.965,11.016-3.944c0.671-5.302-1.446-10.49-2.701-15.56c-1.257-5.074-2.761-10.035-4.955-14.787
					c-3.344-7.244-8.55-12.308-16.842-11.868c-7.315,0.389-13.912,5.761-14.416,13.258c-0.77,11.449,0.306,23.321,3.723,34.3
					c1.521,4.885,3.771,9.752,6.093,14.299c1.221,2.391,2.969,4.437,4.532,6.603c1.932,2.677,2.689,5.267,3.445,8.409
					C113.155,135.591,115.961,134.817,115.522,132.994z"/>
			</g>
		</g>
		<g>
			<g>
				<path d="M111.904,125.014c10.455-7.354,23.539-7.994,35.855-9.085c5.944-0.527,11.89-0.697,17.842-0.215
					c7.005,0.568,13.062,3.824,19.862,4.961c1.835,0.307,2.621-2.497,0.773-2.806c-6.451-1.079-12.274-4.149-18.874-4.872
					c-7.146-0.783-14.247-0.453-21.39,0.18c-12.252,1.085-25.163,2.026-35.538,9.324
					C108.914,123.572,110.365,126.096,111.904,125.014L111.904,125.014z"/>
			</g>
		</g>
		<g>
			<g>
				<path d="M115.464,120.023c0.236,1.653,0.191,3.09,0.952,4.629c0.682,1.379,1.818,2.617,2.938,3.65
					c1.376,1.27,3.439-0.783,2.058-2.058c-0.984-0.908-1.82-1.895-2.482-3.061c-0.648-1.141-0.478-2.668-0.659-3.935
					C118.005,117.398,115.202,118.188,115.464,120.023L115.464,120.023z"/>
			</g>
		</g>
		<g>
			<g>
				<path d="M128.922,114.399c-0.64,3.753-0.218,9.69,4.046,11.125c1.784,0.6,2.542-2.211,0.773-2.806
					c-2.404-0.809-2.352-5.565-2.014-7.546C132.041,113.338,129.237,112.553,128.922,114.399L128.922,114.399z"/>
			</g>
		</g>
		<g>
			<g>
				<path d="M142.621,110.931c0.814,3.95,2.156,8.245,0.727,12.198c-0.64,1.769,2.173,2.524,2.806,0.773
					c1.609-4.451,0.19-9.297-0.727-13.745C145.048,108.32,142.244,109.1,142.621,110.931L142.621,110.931z"/>
			</g>
		</g>
		<g>
			<g>
				<path d="M160.079,112.748c0.332,1.63,0.276,3.284,0.363,4.938c0.104,1.992,0.759,3.916,0.484,5.928
					c-0.249,1.834,2.555,2.625,2.807,0.773c0.259-1.908,0.051-3.673-0.248-5.564c-0.359-2.276-0.138-4.579-0.6-6.849
					C162.511,110.137,159.707,110.917,160.079,112.748L160.079,112.748z"/>
			</g>
		</g>
		<g>
			<g>
				<path d="M175.908,115.393c-0.176,1.965,0.351,3.87,0.786,5.771c0.581,2.544-0.075,4.577-0.491,7.057
					c-0.307,1.835,2.497,2.621,2.807,0.773c0.386-2.304,1.062-4.312,0.83-6.678c-0.229-2.343-1.235-4.54-1.021-6.923
					C178.985,113.523,176.074,113.539,175.908,115.393L175.908,115.393z"/>
			</g>
		</g>
	</g>
	<g>
		<g>
			<path d="M145.552,132.928c-2.603,1.956-3.417,4.809-7.291,4.734c-2.518-0.049-5.094-0.263-7.594,0.172
				c-4.934,0.859-6.987,3.877-7.443,8.705c-0.362,3.831,2.028,9.63,6.716,9.433c4.686-0.197,8.34-4.325,7.939-9.019
				c-0.158-1.855-3.069-1.871-2.909,0c0.209,2.457-0.922,4.283-2.924,5.609c-3.661,2.427-5.768-2.395-5.937-4.933
				c-0.325-4.87,2.54-6.84,6.938-7.106c2.539-0.154,5.332,0.482,7.818-0.045c3.161-0.67,3.786-3.259,6.154-5.038
				C148.501,134.328,147.054,131.8,145.552,132.928L145.552,132.928z"/>
		</g>
	</g>
	<g>
		<g>
			<path d="M124.685,142.37c-3.522-3.874-12.758-1.177-15.146,3.072c-3.062,5.449-2.2,12.607,3.74,15.468
				c3.533,1.701,10.693,1.883,12.884-2.211c2.525-4.717-1.786-8.979-6.632-8.149c-6.969,1.194-9.971,6.762-10.58,13.433
				c-0.526,5.757,5.308,13.598,11.71,11.44c5.061-1.706,0.602-7.597-2.512-8.444c-7.456-2.031-9.985,6.428-11.738,11.594
				c-0.604,1.782,2.206,2.54,2.806,0.773c0.937-2.761,1.55-5.737,3.459-8.028c1.425-1.711,4.178-1.964,6.07-1.041
				c1.673,1.172,1.499,1.996-0.522,2.473c-1.422-0.362-2.692-1.018-3.813-1.966c-6.647-5.229-0.843-16.969,6.512-17.44
				c4.589-0.295,3.164,4.468,0.148,5.436c-2.299,0.737-4.964,0.273-7.09-0.75c-3.492-1.682-3.581-5.809-2.865-9.112
				c0.725-3.344,8.573-7.721,11.51-4.489C123.892,145.818,125.944,143.754,124.685,142.37L124.685,142.37z"/>
		</g>
	</g>
	<g>
		<g>
			<path d="M115.823,186.197c4.328-2.942,7.952-7.711,5.842-13.121c-0.674-1.729-3.488-0.977-2.806,0.773
				c1.621,4.157-1.188,7.58-4.505,9.836C112.813,184.733,114.267,187.256,115.823,186.197L115.823,186.197z"/>
		</g>
	</g>
	<circle cx="134.891" cy="169.342" r="2.829"/>
	<circle cx="163.987" cy="169.342" r="2.829"/>
	<g>
		<g>
			<path d="M140.702,185.55c4.749,3.152,11.239,4.559,15.827,0.42c1.396-1.259-0.668-3.31-2.057-2.057
				c-3.573,3.222-8.757,1.478-12.302-0.875C140.603,181.997,139.147,184.518,140.702,185.55L140.702,185.55z"/>
		</g>
	</g>
	<circle fill="#FFB0BA" cx="132.061" cy="180.935" r="4.365"/>
	<circle fill="#FFB0BA" cx="167.947" cy="180.935" r="4.365"/>
	<g>
		<g>
			<path d="M116.646,184.676c3.764,4.592,9.875,7.414,14.865,10.488c5.897,3.635,13.025,4.454,19.807,4.109
				c6.298-0.319,13.696-2.622,19.46-5.104c6.219-2.678,12.292-6.035,16.517-11.465c1.138-1.461-0.906-3.536-2.057-2.057
				c-3.416,4.389-8.054,7.299-12.995,9.715c-6.124,2.994-14.135,5.334-20.925,6.001c-6.37,0.626-12.751-0.638-18.338-3.712
				c-4.727-2.602-10.859-5.866-14.276-10.033C117.514,181.167,115.467,183.238,116.646,184.676L116.646,184.676z"/>
		</g>
	</g>
	<g>
		<defs>
			<path id="SVGID_1_" d="M141.357,197.469c2.183,2.423,4.123,6.546,8.244,6.546c4.122,0,6.547-5.092,9.457-7.76l8.485,0.243
				c0.971,8.487,4.606,16.246,6.547,24.489c1.455,6.305,1.214,8.487-4.849,11.154c-5.334,2.183-10.184,3.879-16.245,3.395
				c-4.85-0.485-9.941-1.455-15.034-1.698c-5.576-0.241-11.88-0.241-11.153-7.758c0.485-5.093,2.668-10.185,3.637-15.275
				c0.97-4.607,0-11.639,1.698-15.519"/>
		</defs>
		<clipPath id="SVGID_2_">
			<use xlink:href="#SVGID_1_"  overflow="visible"/>
		</clipPath>
		<g clip-path="url(#SVGID_2_)">
			<path fill="#D72727" d="M141.357,197.469c2.183,2.423,4.123,6.546,8.244,6.546c4.122,0,6.547-5.092,9.457-7.76l8.485,0.243
				c0.971,8.487,4.606,16.246,6.547,24.489c1.455,6.305,1.214,8.487-4.849,11.154c-5.334,2.183-10.184,3.879-16.245,3.395
				c-4.85-0.485-9.941-1.455-15.034-1.698c-5.576-0.241-11.88-0.241-11.153-7.758c0.485-5.093,2.668-10.185,3.637-15.275
				c0.97-4.607,0-11.639,1.698-15.519"/>
			<g>
				<path d="M139.236,199.59c3.996,4.774,9.376,10.66,15.796,5.374c1.363-1.122,2.478-2.376,3.6-3.735
					c0.543-0.679,1.105-1.341,1.687-1.986c-0.269,0.307-1.946-0.007-0.113,0.046c2.445,0.069,4.892,0.14,7.338,0.21
					c-0.964-0.734-1.929-1.469-2.893-2.202c1.269,9.276,5.311,17.792,7.055,26.952c0.782,4.11-3.243,5.025-6.417,6.238
					c-5.335,2.038-10.353,2.323-15.971,1.614c-4.541-0.574-9.031-1.143-13.606-1.364c-1.548-0.075-3.165-0.207-4.601-0.846
					c-2.686-1.196-0.921-6.172-0.466-8.105c0.967-4.102,2.587-8.072,3.021-12.293c0.456-4.438-0.134-9.153,1.372-13.408
					c1.293-3.657-4.505-5.217-5.786-1.596c-1.769,5.002-0.835,10.368-1.698,15.519c-1.043,6.227-4.311,12.253-3.678,18.697
					c1,10.181,16.726,8.226,23.577,9.146c6.935,0.932,12.793,0.762,19.432-1.577c3.786-1.335,8.33-2.966,10.192-6.83
					c1.858-3.855,0.033-8.961-1.016-12.759c-1.939-7.023-4.631-13.721-5.624-20.983c-0.181-1.324-1.69-2.168-2.893-2.202
					c-2.832-0.081-6.532-0.893-9.283-0.136c-2.322,0.639-4.101,3.947-5.598,5.651c-3.92,4.463-6.726-0.729-9.184-3.666
					C140.992,192.377,136.771,196.645,139.236,199.59L139.236,199.59z"/>
			</g>
		</g>
		<path clip-path="url(#SVGID_2_)" fill="#FFFCB0" stroke="#000000" stroke-width="2" stroke-miterlimit="10" d="M169.188,211.696
			c0,0-10.008,1.29-18.859,1.29c-8.85,0-17.853-1.795-17.853-1.795l0.578-9.517c0,0,9.233,2.663,16.75,2.784
			c7.517,0.122,16.539-2.784,16.539-2.784L169.188,211.696z"/>
		<path clip-path="url(#SVGID_2_)" fill="#FFFCB0" stroke="#000000" stroke-width="2" stroke-miterlimit="10" d="M172.625,223.938
			c0,0-13.445,4.567-22.296,4.567c-8.85,0-21.574-2.47-21.574-2.47l2.316-9.962c0,0,11.741,2.065,19.257,2.188
			c7.517,0.12,20.493-2.336,20.493-2.336L172.625,223.938z"/>
	</g>
</g>
</svg>
