<?xml version="1.0" encoding="utf-8"?>
<!-- Generator: Adobe Illustrator 16.0.0, SVG Export Plug-In . SVG Version: 6.00 Build 0)  -->
<!DOCTYPE svg PUBLIC "-//W3C//DTD SVG 1.1//EN" "http://www.w3.org/Graphics/SVG/1.1/DTD/svg11.dtd">
<svg version="1.1" id="레이어_1" xmlns="http://www.w3.org/2000/svg" xmlns:xlink="http://www.w3.org/1999/xlink" x="0px"
	 y="0px" width="379.801px" height="167.16px" viewBox="0 0 379.801 167.16" enable-background="new 0 0 379.801 167.16"
	 xml:space="preserve">
<rect fill-rule="evenodd" clip-rule="evenodd" fill="#ED1C24" width="379.801" height="167.4"/>
<path fill-rule="evenodd" clip-rule="evenodd" fill="#FFFFFF" d="M82.729,86.908c1.582-0.324,6.277-1.553,5.364-3.41
	c-0.842-1.089-7.334,0.518-8.904,1.071c5.152-6.874,8.448-12.109,12.935-19.714c1.466,0.744,5.733,5.158,6.989,3.11
	c1.01-1.648-2.62-3.791-3.888-4.435c7.559-10.293,17.229-8.522,12.215,2.862c-4.318,6.332-8.487,8.96-15.106,7.439
	c-1.931-0.444-5.613-0.458-5.209,1.751c0.312,1.703,1.589,3.241,5.03,2.218c4.368-0.746,5.828,1.5,6.585,5.521
	c-0.572,6.486-2.827,13.481-10.468,16.513c-10.517,4.171-15.036-0.156-12.682-5.804C77.067,90.488,79.026,87.665,82.729,86.908
	L82.729,86.908z M257.659,63.194c1.491,1.116,1.798,3.529,0.684,5.372c-1.114,1.84-3.239,2.434-4.729,1.318s-1.797-3.53-0.683-5.372
	C254.047,62.67,256.17,62.078,257.659,63.194L257.659,63.194z M282.621,88.039c1.523-3.568,3.221-6.991,8.253-9.999
	c3.489-2.085,3.164,0.365,1.499,2.911C289.092,85.97,285.554,87.448,282.621,88.039L282.621,88.039z M298.511,84.013
	c-3.576,4.25-4.703,7.111-8.958,10.62c-6.118,5.048-11.589,1.598-8.051-4.5c4.233-1.001,8.683-0.647,13.141-5.132
	c4.447-4.474,4.004-9.196-0.639-10.125c-4.428-0.887-11.859,3.809-17.966,10.407c-1.971,2.13-3.757,3.727-7.181,5.825
	c0.405-4.008-0.02-7.753-0.137-12.271c-0.015-0.591,0.288-0.888,0.881-0.886c1.949,0.001,2.162-1.668,1.764-3.252
	c-0.664-2.643-3.49-2.658-4.588-0.38c-0.535,1.108-1.136,2.205-1.952,3.038c-6.221,6.326-12.107,12.889-19.413,18.444
	c-3.363,2.559-4.865,0.431-2.966-2.774c3.547-5.755,7.257-10.116,10.678-15.979c-2.445,0.085-4.89,0.169-7.336,0.253
	c-5.888,5.801-8.638,11.332-16.79,17.639c-7.306,4.615-11.148,0.621-7.227-4.463c4.233-1.001,7.22-0.458,11.679-4.945
	c4.447-4.475,4.642-9.759-0.001-10.688c-4.455-0.892-11.074,1.604-15.261,10.186c-2.713,4.262-6.334,2.057-5.478-0.302
	c2.32-4.249,2.13-2.653,3.307-6.79c0.861-3.03-2.682-4.239-4.716-1.964c-2.211,2.471-1.456,5.85-2.396,8.789
	c-3.968,7.416-6.355,10.529-10.982,11.954c-4.042,1.243-3.4-0.749-2.054-3.038c3.493-5.942,6.63-11.256,10.115-17.204
	c-2.273,0-4.548,0-6.822,0c-4.254,7.889-8.369,13.92-15.291,19.128c-2.196,1.654-5.115,1.473-3.07-1.846
	c3.764-6.108,7.849-10.922,11.407-17.207c-2.296,0.127-5.026,0.253-7.323,0.38c-0.76,1.45-24.552,29.151-19.412,16.509
	c5.902-11.104,14.044-24.975,19.904-36.112c-2.233,0.042-4.466,0.084-6.7,0.126c-3.133,6.202-8.667,14.428-11.8,20.629
	c-1.459-3.385-5.267-4.351-8.55-3.037c-9.487,3.795-14.227,14.336-22.76,20.205c-3.489,2.874-4.882,1.646-2.678-1.772
	c3.773-5.853,7.386-11.009,10.957-17.095c-2.478,0.126-4.955,0.252-7.432,0.38c-4.168,6.963-7.691,13.773-14.791,18.309
	c-13.137,8.394,5.271-15.643,7.121-18.647c-2.585,0.126-4.496-0.347-7.081-0.22c-2.118,5.423-11.853,13.911-17.238,16.84
	c2.07-4.93,6.11-13.183-2.579-15.244c7.844-2.023,15.435-9.522,14.74-16.703c-0.834-8.627-8.287-8.577-13.912-7.274
	c-3.689,0.854-8.291,4.243-10.894,7.993c-1.323-0.671-1.806-1.104-3.168-1.759c0.893-1.307,1.939-3,2.821-4.307l-8.377-0.818
	l-1.156,1.733c-8.547-3.302-34.11-4.816-37.921,6.53C41.623,78.762,58.236,75.001,69.86,74.328l-7.481,10.578
	c-2.793,3.813-6.212,8.229-7.407,12.043c-0.715,9.535,6.593,8.844,11.553,4.948c2.642-2.074,4.625-4.831,5.83-6.438
	c-0.502,3.368,0.497,6.27,3.399,8.063c11.5,5.269,29.166-5.587,37.412-13.478c-1.644,4.429-4.246,8.102,0.535,10.519
	c2.273,1.149,8.164-2.324,12.498-6.227c0.486,2.552-0.195,5.27,2.42,6.154c4.017,1.322,11.99-4.78,13.28-7.435
	c-0.398,3.844-0.535,6.375,2.738,7.629c3.927,1.177,8.724-2.443,12.938-6.281c0.66,2.995,0.985,7.033,3.919,6.833
	c4.391-0.299,8.278-3.046,12.481-7.934c-0.135,5.402,0.73,6.414,2.622,7.344c3.924,1.403,8.45-2.72,12.815-7.002
	c0.618,2.425,0.31,6.114,2.467,6.937c3.467,1.323,9.001-1.415,13.507-5.292c1.807-1.556,3.877-6.478,5.594-7.465
	c0.71-0.409,0.309,0.931,3.427,2.431c-4.008,8.063,1.894,11.611,10.869,9.684c3.677-1.3,6.149-2.139,11.048-8.192
	c-1.505,2.152-1.438,3.911-0.979,5.985c1.775,3.482,7.477,4.757,12.314-0.305c5.619-5.451,11.118-10.05,16.375-15.955
	c0.457,2.616,0.24,5.173-0.72,7.977c-1.655,4.84-4.206,7.904-6.831,8.854c-3.282-0.858-2.95-1.724-3.464-2.664
	c-0.169-0.31-0.533-1.017-1.568-0.89c-2.745,0.398-2.421,3.98,0.209,5.804c2.858,1.088,5.929,0.527,11.341-1.345
	c3.663-1.267,8.358-5.936,11.106-9.085c-2.307,9.35,4.336,12.21,9.737,10.3c2.302-0.813,4.718-1.505,7.46-4.063
	c2.57-2.398,4.416-5.085,6.657-7.874c2.515-3.128,5.058-5.964,7.777-8.155c2.692-2.17,3.11-1.153,0.9,2.354
	c-3.927,6.232-6.512,10.54-10.389,16.817c2.471-0.162,4.941-0.323,7.412-0.485c3.14-3.923,9.236-12.506,12.375-16.43
	c-0.57,2.365,0.904,5.239,3.466,6.041c3.17,0.992,5.246-1.996,7.357-4.783c1.162-1.533,0.816-2.641,0.2-3.15
	c-0.51-0.421-0.998-0.265-2.436,1.299c-2.264,2.461-3.52,4.682-4.268,2.798c0.054-1.465,0.933-2.392,2.961-5.153
	c2.26-3.124,1.593-5.547-3.252-3.679c-3.143,1.328-5.723,6.329-8.599,9.339c1.193-2.407,2.711-5.128,1.499-7.979
	c-1.546-3.636-6.229-1.859-9.967,1.766C301.419,80.619,299.951,82.3,298.511,84.013L298.511,84.013z M158.99,79.799
	c3.588-2.567,7.348-2.438,4.971,2.46c-2.606,4.501-6.848,9.388-10.369,12.646c-4.213,3.474-6.116,2.292-4.423-2.911
	C150.909,87.15,155.125,82.333,158.99,79.799L158.99,79.799z M223.789,87.143c1.524-3.567,0.746-4.665,5.517-8.348
	c5.758-3.351,5.093,0.577,1.912,4.073C226.288,87.249,226.723,86.553,223.789,87.143L223.789,87.143z M70.993,70.833L80.199,59.4
	c-7.481-2.597-31.399-5.702-32.558,5.22C46.225,76.489,66.377,72.671,70.993,70.833L70.993,70.833z M86.693,62.245
	c-6.822,9.91-13.308,20.069-20.076,29.917c-4.073,5.925-5.235,7.953-4.531,9.032c3.766,1.495,21.125-26.968,26.822-34.632
	c0.44-0.825,0.888-1.625,1.348-2.395C88.831,63.486,88.058,62.838,86.693,62.245z"/>
<polyline fill-rule="evenodd" clip-rule="evenodd" fill="none" stroke="#FFFFFF" stroke-width="4.252" stroke-miterlimit="22.9256" points="
	175.193,63.719 87.9,31.5 24.3,129.9 155.7,109.5 290.1,135.9 355.5,34.5 185.1,64.5 "/>
</svg>
